<svg xmlns="http://www.w3.org/2000/svg" xmlns:xlink="http://www.w3.org/1999/xlink" width="500" zoomAndPan="magnify" viewBox="0 0 375 374.999991" height="500" preserveAspectRatio="xMidYMid meet" version="1.0"><defs><clipPath id="d600b25779"><path d="M 244 221 L 319.0625 221 L 319.0625 296.25 L 244 296.25 Z M 244 221 " clip-rule="nonzero"/></clipPath><clipPath id="d5f4059fa4"><path d="M 73 216 L 154 216 L 154 296.25 L 73 296.25 Z M 73 216 " clip-rule="nonzero"/></clipPath><clipPath id="7144aa78b1"><path d="M 44.5625 101 L 128 101 L 128 162 L 44.5625 162 Z M 44.5625 101 " clip-rule="nonzero"/></clipPath></defs><path fill="#f19763" d="M 228.117188 138.773438 C 226.460938 141.511719 224.019531 142.84375 221.289062 141.183594 L 155.179688 113.496094 C 152.441406 111.832031 150.457031 109.566406 152.605469 104.625 L 152.925781 103.898438 C 155.546875 99.316406 160.148438 99.230469 162.886719 100.890625 L 227.785156 133.734375 C 230.519531 135.394531 229.785156 136.039062 228.117188 138.773438 " fill-opacity="1" fill-rule="nonzero"/><path fill="#f19763" d="M 227.785156 133.734375 C 227.785156 133.734375 240.519531 136.820312 240.789062 143.839844 C 240.832031 144.925781 240.929688 147.835938 239.058594 147.835938 C 239.058594 147.835938 236.933594 147.925781 236.574219 144.542969 C 236.207031 141.160156 232.460938 140.570312 229.964844 140.566406 C 227.46875 140.566406 225.40625 143.773438 221.289062 141.183594 L 227.785156 133.734375 " fill-opacity="1" fill-rule="nonzero"/><path fill="#7b7979" d="M 82.496094 201.871094 L 88.003906 201.136719 L 75.765625 163.6875 C 75.300781 162.253906 73.753906 161.46875 72.328125 161.9375 C 70.886719 162.410156 70.101562 163.953125 70.570312 165.386719 L 82.496094 201.871094 " fill-opacity="1" fill-rule="nonzero"/><path fill="#7b7979" d="M 112.710938 201.871094 L 118.222656 201.136719 L 105.988281 163.6875 C 105.519531 162.253906 103.980469 161.46875 102.542969 161.9375 C 101.105469 162.410156 100.328125 163.953125 100.796875 165.386719 L 112.710938 201.871094 " fill-opacity="1" fill-rule="nonzero"/><path fill="#a7a5a6" d="M 121.40625 164.039062 C 121.40625 165.546875 120.179688 166.769531 118.671875 166.769531 L 56.101562 166.769531 C 54.59375 166.769531 53.371094 165.546875 53.371094 164.039062 C 53.371094 162.527344 54.59375 161.300781 56.101562 161.300781 L 118.671875 161.300781 C 120.179688 161.300781 121.40625 162.527344 121.40625 164.039062 " fill-opacity="1" fill-rule="nonzero"/><g clip-path="url(#d600b25779)"><path fill="#5b1f15" d="M 319.070312 258.949219 C 319.070312 279.5 302.410156 296.160156 281.863281 296.160156 C 261.316406 296.160156 244.660156 279.5 244.660156 258.949219 C 244.660156 238.40625 261.316406 221.742188 281.863281 221.742188 C 302.410156 221.742188 319.070312 238.40625 319.070312 258.949219 " fill-opacity="1" fill-rule="nonzero"/></g><path fill="#d5d1b0" d="M 299.308594 258.949219 C 299.308594 268.585938 291.492188 276.398438 281.863281 276.398438 C 272.222656 276.398438 264.421875 268.585938 264.421875 258.949219 C 264.421875 249.3125 272.222656 241.503906 281.863281 241.503906 C 291.492188 241.503906 299.308594 249.3125 299.308594 258.949219 " fill-opacity="1" fill-rule="nonzero"/><path fill="#5b1f15" d="M 291.527344 258.949219 C 291.527344 264.289062 287.199219 268.617188 281.863281 268.617188 C 276.527344 268.617188 272.203125 264.289062 272.203125 258.949219 C 272.203125 253.617188 276.527344 249.289062 281.863281 249.289062 C 287.199219 249.289062 291.527344 253.617188 291.527344 258.949219 " fill-opacity="1" fill-rule="nonzero"/><path fill="#f68712" d="M 110.710938 203.574219 C 110.710938 204.890625 109.636719 205.960938 108.320312 205.960938 L 72.367188 205.960938 C 71.042969 205.960938 69.980469 204.890625 69.980469 203.574219 L 69.980469 194.015625 C 69.980469 192.703125 71.042969 191.632812 72.367188 191.632812 L 108.320312 191.632812 C 109.636719 191.632812 110.710938 192.703125 110.710938 194.015625 L 110.710938 203.574219 " fill-opacity="1" fill-rule="nonzero"/><path fill="#af211f" d="M 219.648438 264.476562 C 219.648438 267.359375 217.316406 269.691406 214.4375 269.691406 C 211.5625 269.691406 209.226562 267.359375 209.226562 264.476562 L 209.226562 254.71875 C 209.226562 251.84375 211.5625 249.507812 214.4375 249.507812 C 217.316406 249.507812 219.648438 251.84375 219.648438 254.71875 L 219.648438 264.476562 " fill-opacity="1" fill-rule="nonzero"/><path fill="#5b1f15" d="M 181.226562 266.375 C 179.484375 266.375 178.070312 264.964844 178.070312 263.226562 C 178.070312 261.480469 179.484375 260.070312 181.226562 260.070312 L 214.796875 260.070312 C 216.539062 260.070312 217.945312 261.480469 217.945312 263.226562 C 217.945312 264.964844 216.539062 266.375 214.796875 266.375 L 181.226562 266.375 " fill-opacity="1" fill-rule="nonzero"/><path fill="#f8a10e" d="M 264.84375 147.136719 C 264.84375 156.65625 257.125 164.375 247.601562 164.375 C 238.085938 164.375 230.367188 156.65625 230.367188 147.136719 C 230.367188 137.617188 238.085938 129.898438 247.601562 129.898438 C 257.125 129.898438 264.84375 137.617188 264.84375 147.136719 " fill-opacity="1" fill-rule="nonzero"/><path fill="#5b1f15" d="M 122.050781 204.382812 C 122.050781 206.019531 120.570312 207.34375 118.746094 207.34375 L 81.058594 207.34375 C 79.230469 207.34375 77.757812 206.019531 77.757812 204.382812 L 77.757812 192.542969 C 77.757812 190.902344 79.230469 189.582031 81.058594 189.582031 L 118.746094 189.582031 C 120.570312 189.582031 122.050781 190.902344 122.050781 192.542969 L 122.050781 204.382812 " fill-opacity="1" fill-rule="nonzero"/><path fill="#dc2b28" d="M 130.71875 206.691406 C 130.71875 208.804688 129.191406 210.523438 127.3125 210.523438 L 88.070312 210.523438 C 86.179688 210.523438 84.65625 208.804688 84.65625 206.691406 L 84.65625 191.347656 C 84.65625 189.234375 86.179688 187.515625 88.070312 187.515625 L 127.3125 187.515625 C 129.191406 187.515625 130.71875 189.234375 130.71875 191.347656 L 130.71875 206.691406 " fill-opacity="1" fill-rule="nonzero"/><g clip-path="url(#d5f4059fa4)"><path fill="#5b1f15" d="M 153.074219 256.320312 C 153.074219 278.324219 135.246094 296.160156 113.25 296.160156 C 91.242188 296.160156 73.410156 278.324219 73.410156 256.320312 C 73.410156 234.320312 91.242188 216.484375 113.25 216.484375 C 135.246094 216.484375 153.074219 234.320312 153.074219 256.320312 " fill-opacity="1" fill-rule="nonzero"/></g><path fill="#d5d1b0" d="M 131.925781 256.320312 C 131.925781 266.636719 123.558594 275.003906 113.25 275.003906 C 102.925781 275.003906 94.566406 266.636719 94.566406 256.320312 C 94.566406 246 102.925781 237.640625 113.25 237.640625 C 123.558594 237.640625 131.925781 246 131.925781 256.320312 " fill-opacity="1" fill-rule="nonzero"/><path fill="#5b1f15" d="M 123.589844 256.320312 C 123.589844 262.035156 118.957031 266.667969 113.25 266.667969 C 107.523438 266.667969 102.90625 262.035156 102.90625 256.320312 C 102.90625 250.609375 107.523438 245.976562 113.25 245.976562 C 118.957031 245.976562 123.589844 250.609375 123.589844 256.320312 " fill-opacity="1" fill-rule="nonzero"/><path fill="#ef2f2c" d="M 316.4375 242.511719 C 316.449219 242.339844 316.457031 242.167969 316.457031 242 C 316.457031 229.933594 301.449219 220.15625 282.9375 220.15625 C 264.421875 220.15625 249.410156 229.933594 249.410156 242 C 249.410156 242.167969 249.425781 242.339844 249.429688 242.511719 L 316.4375 242.511719 " fill-opacity="1" fill-rule="nonzero"/><path fill="#ef2f2c" d="M 262.371094 208.144531 C 256.957031 191.546875 243.296875 140.273438 243.296875 140.273438 L 231.445312 144.390625 C 237.625 171.199219 240.207031 181.507812 245.359375 215.875 C 249.386719 242.730469 233.25 245.429688 218.558594 245.429688 C 206.957031 245.429688 192.785156 245.429688 192.785156 245.429688 C 151.140625 245.429688 168.175781 182.632812 170.394531 175.023438 L 124.679688 175.023438 L 141.246094 222.230469 C 137.121094 259.917969 178.351562 257.285156 178.351562 257.285156 L 238.398438 257.285156 C 272.933594 257.285156 266.78125 221.691406 262.371094 208.144531 " fill-opacity="1" fill-rule="nonzero"/><path fill="#ef2f2c" d="M 254.015625 127.726562 C 238.464844 127.808594 225.890625 136.464844 225.890625 147.136719 C 225.890625 157.808594 238.464844 166.464844 254.015625 166.550781 L 254.015625 127.726562 " fill-opacity="1" fill-rule="nonzero"/><path fill="#ef2f2c" d="M 284.726562 223.429688 C 282.761719 218.214844 266.453125 176.261719 263.355469 169.183594 C 261.949219 165.984375 257.578125 166.035156 257.578125 166.035156 L 244.054688 166.035156 L 258.464844 223.429688 L 284.726562 223.429688 " fill-opacity="1" fill-rule="nonzero"/><path fill="#ef2f2c" d="M 157.894531 229.496094 C 157.894531 229.222656 157.914062 228.949219 157.914062 228.675781 C 157.914062 209.390625 148.320312 186.167969 120.425781 186.167969 C 87.773438 186.167969 76.574219 209.390625 76.574219 228.675781 C 76.574219 228.949219 76.585938 229.222656 76.59375 229.496094 L 157.894531 229.496094 " fill-opacity="1" fill-rule="nonzero"/><path fill="#c82724" d="M 124.757812 186.167969 C 123.535156 186.167969 122.351562 186.210938 121.183594 186.273438 C 146.933594 187.929688 155.941406 210.53125 155.992188 229.496094 L 162.222656 229.496094 C 162.226562 229.222656 162.25 228.949219 162.25 228.675781 C 162.25 209.390625 152.65625 186.167969 124.757812 186.167969 " fill-opacity="1" fill-rule="nonzero"/><path fill="#921b18" d="M 136.246094 223.171875 C 136.246094 223.964844 135.597656 224.609375 134.808594 224.609375 L 95.113281 224.609375 C 94.324219 224.609375 93.683594 223.964844 93.683594 223.171875 C 93.683594 222.382812 94.324219 221.742188 95.113281 221.742188 L 134.808594 221.742188 C 135.597656 221.742188 136.246094 222.382812 136.246094 223.171875 " fill-opacity="1" fill-rule="nonzero"/><path fill="#921b18" d="M 136.246094 217.914062 C 136.246094 218.703125 135.597656 219.34375 134.808594 219.34375 L 95.113281 219.34375 C 94.324219 219.34375 93.683594 218.703125 93.683594 217.914062 C 93.683594 217.125 94.324219 216.484375 95.113281 216.484375 L 134.808594 216.484375 C 135.597656 216.484375 136.246094 217.125 136.246094 217.914062 " fill-opacity="1" fill-rule="nonzero"/><path fill="#921b18" d="M 136.246094 212.652344 C 136.246094 213.441406 135.597656 214.082031 134.808594 214.082031 L 95.113281 214.082031 C 94.324219 214.082031 93.683594 213.441406 93.683594 212.652344 C 93.683594 211.863281 94.324219 211.222656 95.113281 211.222656 L 134.808594 211.222656 C 135.597656 211.222656 136.246094 211.863281 136.246094 212.652344 " fill-opacity="1" fill-rule="nonzero"/><path fill="#921b18" d="M 136.246094 207.390625 C 136.246094 208.183594 135.597656 208.824219 134.808594 208.824219 L 95.113281 208.824219 C 94.324219 208.824219 93.683594 208.183594 93.683594 207.390625 C 93.683594 206.597656 94.324219 205.960938 95.113281 205.960938 L 134.808594 205.960938 C 135.597656 205.960938 136.246094 206.597656 136.246094 207.390625 " fill-opacity="1" fill-rule="nonzero"/><path fill="#5b1f15" d="M 174.992188 180.496094 C 174.992188 184.375 171.851562 187.515625 167.976562 187.515625 L 109.429688 187.515625 C 105.554688 187.515625 102.410156 184.375 102.410156 180.496094 C 102.410156 176.621094 105.554688 173.476562 109.429688 173.476562 L 167.976562 173.476562 C 171.851562 173.476562 174.992188 176.621094 174.992188 180.496094 " fill-opacity="1" fill-rule="nonzero"/><path fill="#f8a10e" d="M 276.285156 201.660156 L 272.871094 201.660156 C 271.550781 201.660156 270.484375 202.730469 270.484375 204.046875 L 270.484375 213.601562 C 270.484375 214.914062 271.550781 215.988281 272.871094 215.988281 L 281.863281 215.988281 C 280.339844 212.046875 278.367188 207.003906 276.285156 201.660156 " fill-opacity="1" fill-rule="nonzero"/><path fill="#47170f" d="M 240.519531 150.058594 C 239.871094 150.058594 239.265625 149.644531 239.058594 148.992188 C 238.980469 148.777344 231.984375 127.445312 227.859375 117.902344 C 226.425781 114.601562 222.882812 109.339844 215.203125 111.1875 C 214.375 111.382812 213.539062 110.875 213.34375 110.042969 C 213.136719 109.214844 213.652344 108.378906 214.480469 108.175781 C 225.011719 105.652344 229.554688 114.039062 230.695312 116.671875 C 234.882812 126.347656 241.699219 147.148438 241.988281 148.03125 C 242.257812 148.84375 241.808594 149.714844 241.003906 149.980469 C 240.84375 150.035156 240.683594 150.058594 240.519531 150.058594 " fill-opacity="1" fill-rule="nonzero"/><path fill="#47170f" d="M 206.3125 122.691406 C 212.976562 122.636719 218.375 117.21875 218.375 110.542969 C 218.375 103.867188 212.976562 98.453125 206.3125 98.398438 L 206.3125 122.691406 " fill-opacity="1" fill-rule="nonzero"/><g clip-path="url(#7144aa78b1)"><path fill="#f8a10e" d="M 127.960938 155.859375 C 127.960938 158.863281 125.527344 161.300781 122.515625 161.300781 L 50.003906 161.300781 C 46.996094 161.300781 44.558594 158.863281 44.558594 155.859375 L 44.558594 106.859375 C 44.558594 103.847656 46.996094 101.414062 50.003906 101.414062 L 122.515625 101.414062 C 125.527344 101.414062 127.960938 103.847656 127.960938 106.859375 L 127.960938 155.859375 " fill-opacity="1" fill-rule="nonzero"/></g><path fill="#5b1f15" d="M 203.792969 162.855469 C 203.792969 168.570312 199.164062 173.203125 193.441406 173.203125 L 150.140625 173.203125 C 144.421875 173.203125 140.882812 168.570312 140.882812 162.855469 C 140.882812 157.136719 140.882812 152.507812 140.882812 152.507812 L 193.441406 152.507812 C 199.164062 152.507812 203.792969 157.136719 203.792969 162.855469 " fill-opacity="1" fill-rule="nonzero"/><path fill="#ef2f2c" d="M 171.257812 152.507812 C 171.257812 152.507812 175.703125 119.144531 176.90625 107.988281 C 177.410156 103.25 178.203125 96.539062 172.054688 95.808594 L 153.761719 94.183594 C 145.074219 93.414062 144.722656 109.347656 144.296875 114.089844 L 140.886719 152.566406 L 171.257812 152.507812 " fill-opacity="1" fill-rule="nonzero"/><path fill="#42150e" d="M 212.542969 227.472656 L 190.003906 167.769531 C 187.289062 162.738281 189.167969 156.457031 194.207031 153.746094 C 199.230469 151.035156 205.503906 152.914062 208.222656 157.945312 L 230.902344 225.34375 L 212.542969 227.472656 " fill-opacity="1" fill-rule="nonzero"/><path fill="#b08046" d="M 231.507812 223.5625 L 231.507812 232.074219 C 239.28125 232.417969 245.433594 237.085938 245.433594 242.800781 L 245.429688 242.867188 L 209.800781 242.867188 L 209.800781 223.5625 L 231.507812 223.5625 " fill-opacity="1" fill-rule="nonzero"/><path fill="#47170f" d="M 245.433594 242.34375 L 245.433594 245.128906 L 242.21875 245.128906 L 242.21875 244.347656 L 240.972656 244.347656 L 240.972656 245.128906 L 237.773438 245.128906 L 237.773438 244.347656 L 236.519531 244.347656 L 236.519531 245.128906 L 233.320312 245.128906 L 233.320312 244.347656 L 232.070312 244.347656 L 232.070312 245.128906 L 228.859375 245.128906 L 228.859375 244.347656 L 227.609375 244.347656 L 227.609375 245.128906 L 209.800781 245.128906 L 209.800781 242.34375 L 245.433594 242.34375 " fill-opacity="1" fill-rule="nonzero"/><path fill="#47170f" d="M 228.855469 226.539062 L 231.507812 226.539062 L 231.507812 228.140625 L 228.855469 228.140625 C 228.410156 228.140625 228.054688 227.785156 228.054688 227.339844 C 228.054688 226.894531 228.410156 226.539062 228.855469 226.539062 " fill-opacity="1" fill-rule="nonzero"/><path fill="#47170f" d="M 228.855469 229.253906 L 231.507812 229.253906 L 231.507812 230.859375 L 228.855469 230.859375 C 228.410156 230.859375 228.054688 230.496094 228.054688 230.054688 C 228.054688 229.609375 228.410156 229.253906 228.855469 229.253906 " fill-opacity="1" fill-rule="nonzero"/><path fill="#47170f" d="M 232.996094 235.921875 C 232.8125 236.328125 232.335938 236.507812 231.929688 236.332031 C 231.527344 236.15625 231.355469 235.683594 231.523438 235.273438 L 232.890625 232.179688 C 233.453125 232.242188 234 232.332031 234.527344 232.4375 L 232.996094 235.921875 " fill-opacity="1" fill-rule="nonzero"/><path fill="#47170f" d="M 230.109375 234.09375 C 229.773438 234.382812 229.265625 234.347656 228.980469 234.011719 C 228.691406 233.675781 228.730469 233.167969 229.066406 232.878906 L 230.019531 232.0625 C 230.203125 232.054688 230.390625 232.050781 230.589844 232.050781 C 231.199219 232.050781 231.796875 232.082031 232.394531 232.132812 L 230.109375 234.09375 " fill-opacity="1" fill-rule="nonzero"/><path fill="#47170f" d="M 235.867188 236.65625 C 235.6875 237.0625 235.210938 237.246094 234.816406 237.066406 C 234.40625 236.890625 234.222656 236.414062 234.398438 236.007812 L 235.839844 232.75 C 236.371094 232.890625 236.878906 233.058594 237.378906 233.242188 L 235.867188 236.65625 " fill-opacity="1" fill-rule="nonzero"/><path fill="#47170f" d="M 238.742188 237.394531 C 238.5625 237.796875 238.089844 237.980469 237.6875 237.804688 C 237.28125 237.625 237.097656 237.148438 237.273438 236.746094 L 238.59375 233.753906 C 239.089844 233.980469 239.570312 234.230469 240.015625 234.5 L 238.742188 237.394531 " fill-opacity="1" fill-rule="nonzero"/><path fill="#863022" d="M 209.300781 223.496094 C 209.300781 223.957031 209.675781 224.332031 210.136719 224.332031 L 231.558594 224.332031 C 232.019531 224.332031 232.394531 223.957031 232.394531 223.496094 C 232.394531 223.039062 232.019531 222.660156 231.558594 222.660156 L 210.136719 222.660156 C 209.675781 222.660156 209.300781 223.039062 209.300781 223.496094 " fill-opacity="1" fill-rule="nonzero"/><path fill="#5b1f15" d="M 207.058594 227.472656 L 184.515625 167.769531 C 181.808594 162.738281 183.683594 156.457031 188.707031 153.746094 C 193.746094 151.035156 200.019531 152.914062 202.734375 157.945312 L 225.417969 225.34375 L 207.058594 227.472656 " fill-opacity="1" fill-rule="nonzero"/><path fill="#bf935b" d="M 226.234375 225.167969 L 226.234375 233.675781 C 234.007812 234.023438 240.160156 238.691406 240.160156 244.402344 L 240.160156 244.472656 L 204.527344 244.472656 L 204.527344 225.167969 L 226.234375 225.167969 " fill-opacity="1" fill-rule="nonzero"/><path fill="#5b1f15" d="M 240.160156 243.941406 L 240.160156 246.734375 L 236.949219 246.734375 L 236.949219 245.949219 L 235.699219 245.949219 L 235.699219 246.734375 L 232.492188 246.734375 L 232.492188 245.949219 L 231.246094 245.949219 L 231.246094 246.734375 L 228.035156 246.734375 L 228.035156 245.949219 L 226.792969 245.949219 L 226.792969 246.734375 L 223.585938 246.734375 L 223.585938 245.949219 L 222.335938 245.949219 L 222.335938 246.734375 L 204.527344 246.734375 L 204.527344 243.941406 L 240.160156 243.941406 " fill-opacity="1" fill-rule="nonzero"/><path fill="#5b1f15" d="M 223.578125 228.140625 L 226.234375 228.140625 L 226.234375 229.742188 L 223.578125 229.742188 C 223.140625 229.742188 222.78125 229.386719 222.78125 228.941406 C 222.78125 228.5 223.140625 228.140625 223.578125 228.140625 " fill-opacity="1" fill-rule="nonzero"/><path fill="#5b1f15" d="M 223.578125 230.855469 L 226.234375 230.855469 L 226.234375 232.457031 L 223.578125 232.457031 C 223.140625 232.457031 222.78125 232.097656 222.78125 231.660156 C 222.78125 231.214844 223.140625 230.855469 223.578125 230.855469 " fill-opacity="1" fill-rule="nonzero"/><path fill="#5b1f15" d="M 227.71875 237.527344 C 227.539062 237.929688 227.0625 238.117188 226.664062 237.933594 C 226.257812 237.757812 226.078125 237.28125 226.25 236.878906 L 227.617188 233.78125 C 228.183594 233.847656 228.71875 233.933594 229.257812 234.042969 L 227.71875 237.527344 " fill-opacity="1" fill-rule="nonzero"/><path fill="#5b1f15" d="M 224.832031 235.699219 C 224.496094 235.988281 223.992188 235.949219 223.710938 235.613281 C 223.417969 235.277344 223.453125 234.773438 223.785156 234.488281 L 224.742188 233.664062 C 224.925781 233.660156 225.117188 233.652344 225.3125 233.652344 C 225.921875 233.652344 226.519531 233.6875 227.113281 233.734375 L 224.832031 235.699219 " fill-opacity="1" fill-rule="nonzero"/><path fill="#5b1f15" d="M 230.59375 238.261719 C 230.410156 238.667969 229.945312 238.851562 229.539062 238.671875 C 229.132812 238.488281 228.949219 238.019531 229.125 237.613281 L 230.570312 234.347656 C 231.089844 234.496094 231.605469 234.660156 232.105469 234.847656 L 230.59375 238.261719 " fill-opacity="1" fill-rule="nonzero"/><path fill="#5b1f15" d="M 233.464844 239 C 233.28125 239.402344 232.8125 239.585938 232.410156 239.40625 C 232.003906 239.230469 231.816406 238.753906 232 238.347656 L 233.320312 235.355469 C 233.8125 235.585938 234.292969 235.835938 234.742188 236.101562 L 233.464844 239 " fill-opacity="1" fill-rule="nonzero"/><path fill="#a33b2b" d="M 204.023438 225.101562 C 204.023438 225.5625 204.398438 225.933594 204.859375 225.933594 L 226.28125 225.933594 C 226.738281 225.933594 227.113281 225.5625 227.113281 225.101562 C 227.113281 224.640625 226.738281 224.265625 226.28125 224.265625 L 204.859375 224.265625 C 204.398438 224.265625 204.023438 224.640625 204.023438 225.101562 " fill-opacity="1" fill-rule="nonzero"/><path fill="#47170f" d="M 237.484375 150.617188 C 237.484375 154.550781 234.300781 157.738281 230.367188 157.738281 C 226.429688 157.738281 223.25 154.550781 223.25 150.617188 C 223.25 146.683594 226.429688 143.492188 230.367188 143.492188 C 234.300781 143.492188 237.484375 146.683594 237.484375 150.617188 " fill-opacity="1" fill-rule="nonzero"/><path fill="#f8a269" d="M 226.511719 144.027344 C 224.847656 146.765625 222.414062 148.101562 219.675781 146.4375 L 153.570312 118.75 C 150.835938 117.085938 148.847656 114.820312 150.996094 109.878906 L 151.320312 109.148438 C 153.929688 104.570312 158.535156 104.484375 161.273438 106.144531 L 226.171875 138.984375 C 228.914062 140.648438 228.175781 141.289062 226.511719 144.027344 " fill-opacity="1" fill-rule="nonzero"/><path fill="#f8a269" d="M 226.171875 138.984375 C 226.171875 138.984375 238.90625 142.074219 239.179688 149.09375 C 239.222656 150.179688 239.316406 153.089844 237.4375 153.089844 C 237.4375 153.089844 235.328125 153.179688 234.960938 149.796875 C 234.601562 146.414062 230.839844 145.824219 228.355469 145.824219 C 225.855469 145.820312 223.792969 149.027344 219.675781 146.4375 L 226.171875 138.984375 " fill-opacity="1" fill-rule="nonzero"/><path fill="#a31f1c" d="M 150.589844 108.421875 C 148.289062 112.765625 150.492188 118.429688 155.5 121.105469 L 163.726562 125.449219 L 172.054688 109.671875 L 163.828125 105.324219 C 158.796875 102.699219 152.875 104.074219 150.589844 108.421875 " fill-opacity="1" fill-rule="nonzero"/><path fill="#f9a672" d="M 171.71875 83.640625 L 157.472656 81.632812 C 157.472656 81.632812 155.46875 94.484375 155.445312 94.996094 L 155.449219 95.082031 L 155.445312 95.125 L 155.449219 95.128906 C 155.332031 99.132812 158.382812 102.503906 162.332031 102.691406 C 166.332031 102.875 169.71875 99.734375 169.902344 95.675781 L 169.902344 95.570312 L 171.71875 83.640625 " fill-opacity="1" fill-rule="nonzero"/><path fill="#e58148" d="M 155.621094 93.738281 C 160.316406 90.789062 163.3125 91.015625 170.445312 92.019531 L 170.910156 88.972656 L 156.652344 86.929688 L 155.621094 93.738281 " fill-opacity="1" fill-rule="nonzero"/><path fill="#f9a672" d="M 186.191406 67.574219 C 185.851562 67.4375 185.46875 67.507812 185.066406 67.75 L 185.84375 62.21875 C 187.207031 52.503906 183.917969 44.359375 174.574219 43.046875 L 165.160156 41.71875 C 155.808594 40.40625 150.410156 47.328125 149.042969 57.046875 L 148.265625 62.585938 C 147.933594 62.238281 147.574219 62.054688 147.226562 62.097656 C 146.175781 62.222656 145.523438 64.1875 145.769531 66.496094 C 145.9375 68.132812 146.507812 69.488281 147.203125 70.089844 C 147.203125 70.089844 152.171875 88.503906 162.933594 90.015625 C 176.433594 91.917969 184.007812 75.257812 184.007812 75.257812 C 184.839844 74.863281 185.757812 73.71875 186.367188 72.203125 C 187.230469 70.054688 187.15625 67.980469 186.191406 67.574219 " fill-opacity="1" fill-rule="nonzero"/><path fill="#b1221f" d="M 155.539062 94.222656 Z M 170.332031 94.6875 C 169.882812 94.6875 169.480469 95.074219 169.429688 95.550781 C 169.066406 99.28125 165.785156 102.148438 162.035156 101.746094 C 158.386719 101.390625 155.667969 98.074219 155.96875 94.355469 L 155.972656 94.230469 C 156.019531 93.746094 155.675781 93.34375 155.167969 93.296875 L 155.078125 93.289062 C 154.625 93.289062 154.234375 93.667969 154.191406 94.097656 C 154.171875 94.183594 154.167969 94.277344 154.171875 94.289062 C 153.84375 98.941406 157.289062 103.085938 161.855469 103.53125 C 162.070312 103.558594 162.285156 103.570312 162.5 103.570312 L 162.679688 103.574219 C 167.109375 103.574219 170.777344 100.203125 171.21875 95.707031 L 171.222656 95.601562 C 171.257812 95.117188 170.921875 94.738281 170.332031 94.6875 " fill-opacity="1" fill-rule="nonzero"/><path fill="#552019" d="M 183.636719 55 C 183.636719 55 178.027344 67.527344 181.511719 71.460938 C 181.511719 71.460938 189.859375 65.953125 186.566406 53.136719 L 183.636719 55 " fill-opacity="1" fill-rule="nonzero"/><path fill="#552019" d="M 155.53125 50.144531 C 155.53125 50.144531 152.851562 65.433594 148.246094 67.972656 C 148.246094 67.972656 146.058594 55.410156 154.238281 46.644531 L 155.53125 50.144531 " fill-opacity="1" fill-rule="nonzero"/><path fill="#552019" d="M 186.566406 53.136719 C 186.566406 53.136719 183.453125 42.316406 171.042969 41.128906 C 158.632812 39.9375 151.457031 40.515625 148.375 58.390625 C 146.683594 68.144531 163.015625 60.542969 169.039062 57.742188 C 169.039062 57.742188 165.710938 61.363281 161.972656 61.789062 C 161.972656 61.789062 177.898438 65.566406 186.566406 53.136719 " fill-opacity="1" fill-rule="nonzero"/><path fill="#47170f" d="M 164.953125 90.820312 C 164.246094 90.820312 163.503906 90.769531 162.753906 90.664062 C 151.699219 89.109375 146.695312 71.03125 146.492188 70.265625 C 146.394531 69.914062 146.601562 69.554688 146.957031 69.460938 C 147.296875 69.367188 147.660156 69.570312 147.75 69.921875 C 147.800781 70.101562 152.734375 87.933594 162.933594 89.367188 C 175.792969 91.1875 183.257812 75.152344 183.324219 74.988281 C 183.476562 74.660156 183.871094 74.515625 184.199219 74.660156 C 184.519531 74.8125 184.667969 75.203125 184.519531 75.53125 C 184.445312 75.691406 177.417969 90.820312 164.953125 90.820312 " fill-opacity="1" fill-rule="nonzero"/><path fill="#ef2f2c" d="M 165.402344 38.648438 C 152.335938 39.753906 142.636719 51.25 143.742188 64.324219 C 144.078125 68.289062 144.792969 73.191406 146.789062 76.324219 C 146.789062 76.324219 147.632812 77.808594 148.761719 76.96875 C 149.742188 76.238281 148.953125 75.171875 148.953125 75.171875 C 148.269531 73.488281 147.375 70.914062 147.214844 69.007812 C 146.351562 58.726562 154.011719 50.25 164.289062 49.378906 C 174.5625 48.507812 183.601562 56.140625 184.472656 66.414062 C 184.917969 71.726562 183.59375 77.214844 179.800781 80.378906 C 179.5 80.632812 178.890625 80.941406 179.707031 81.933594 C 180.242188 82.59375 180.988281 81.800781 181.304688 81.53125 C 187.433594 76.308594 191.800781 68.921875 191.078125 60.316406 C 189.96875 47.242188 178.476562 37.542969 165.402344 38.648438 " fill-opacity="1" fill-rule="nonzero"/><path fill="#881916" d="M 179.546875 81.277344 C 179.273438 81.304688 178.988281 81.195312 178.800781 80.96875 C 178.492188 80.597656 178.539062 80.050781 178.914062 79.738281 C 182.109375 77.066406 183.742188 72.121094 183.269531 66.519531 C 182.4375 56.734375 173.8125 49.449219 164.035156 50.277344 C 154.082031 51.117188 146.941406 59.328125 147.75 68.960938 C 147.925781 70.964844 148.980469 73.765625 149.429688 74.875 C 149.617188 75.320312 149.398438 75.828125 148.953125 76.007812 C 148.503906 76.191406 148 75.972656 147.820312 75.53125 C 147.226562 74.058594 146.195312 71.269531 146.019531 69.105469 C 145.117188 58.5 152.964844 49.464844 163.882812 48.542969 C 174.621094 47.628906 184.101562 55.628906 185.011719 66.367188 C 185.539062 72.636719 183.71875 77.996094 180.027344 81.074219 C 179.886719 81.195312 179.710938 81.261719 179.546875 81.277344 " fill-opacity="1" fill-rule="nonzero"/></svg>