<svg xmlns="http://www.w3.org/2000/svg" xmlns:xlink="http://www.w3.org/1999/xlink" width="500" zoomAndPan="magnify" viewBox="0 0 375 374.999991" height="500" preserveAspectRatio="xMidYMid meet" version="1.0"><defs><clipPath id="16804f7c7c"><path d="M 37.5 37.5 L 354.75 37.5 L 354.75 354.75 L 37.5 354.75 Z M 37.5 37.5 " clip-rule="nonzero"/></clipPath></defs><g clip-path="url(#16804f7c7c)"><path fill="#6418fc" d="M 234.035156 229.5625 C 237.9375 239.460938 235.90625 251.136719 227.914062 259.097656 L 208.464844 278.546875 C 208.339844 278.738281 208.148438 278.894531 207.957031 279.054688 L 156.699219 324.359375 C 156.085938 324.898438 155.148438 324.863281 154.566406 324.292969 C 153.980469 323.691406 153.953125 322.769531 154.5 322.136719 L 199.804688 270.867188 C 199.964844 270.710938 200.152344 270.550781 200.34375 270.394531 L 198.25 268.332031 C 198.09375 268.488281 197.902344 268.679688 197.742188 268.808594 L 146.480469 314.140625 C 145.859375 314.679688 144.925781 314.648438 144.339844 314.078125 C 143.757812 313.476562 143.730469 312.554688 144.277344 311.921875 L 189.582031 260.652344 C 189.742188 260.464844 189.929688 260.335938 190.105469 260.179688 L 188.023438 258.082031 C 187.867188 258.242188 187.679688 258.433594 187.515625 258.589844 L 136.246094 303.894531 C 135.628906 304.433594 134.691406 304.402344 134.109375 303.832031 C 133.523438 303.261719 133.496094 302.308594 134.042969 301.707031 L 179.347656 250.4375 C 179.511719 250.246094 179.699219 250.089844 179.875 249.929688 L 177.789062 247.867188 C 177.636719 248.027344 177.445312 248.21875 177.285156 248.34375 L 126.011719 293.679688 C 125.394531 294.21875 124.460938 294.1875 123.878906 293.585938 C 123.292969 293.011719 123.265625 292.09375 123.8125 291.457031 L 169.117188 240.191406 C 169.277344 240 169.464844 239.875 169.644531 239.714844 L 169.617188 239.683594 L 189.046875 220.234375 C 197.046875 212.273438 208.71875 210.210938 218.585938 214.144531 L 324.105469 102.386719 C 295.234375 63.046875 248.660156 37.5 196.125 37.5 C 108.519531 37.5 37.5 108.519531 37.5 196.125 C 37.5 219.949219 42.761719 242.539062 52.164062 262.8125 L 163.375 157.820312 C 155.867188 141.84375 161.085938 119.402344 177.503906 102.984375 C 197.296875 83.199219 237.589844 67.886719 253.007812 83.308594 C 268.425781 98.726562 253.132812 139.042969 233.339844 158.824219 C 216.9375 175.242188 194.488281 180.460938 178.511719 172.953125 L 68.15625 289.839844 C 97.023438 329.210938 143.585938 354.75 196.125 354.75 C 283.71875 354.75 354.75 283.71875 354.75 196.125 C 354.75 172.304688 349.484375 149.722656 340.09375 129.449219 L 234.035156 229.5625 " fill-opacity="1" fill-rule="nonzero"/></g></svg>